<svg xmlns="http://www.w3.org/2000/svg" version="1.1" xmlns:xlink="http://www.w3.org/1999/xlink" xmlns:svgjs="http://svgjs.dev/svgjs" width="950" height="600" preserveAspectRatio="none" viewBox="0 0 950 600"><g mask="url(&quot;#SvgjsMask1090&quot;)" fill="none"><rect width="950" height="600" x="0" y="0" fill="rgba(45, 43, 45, 1)"></rect><path d="M0,444.644C81.829,456.355,163.375,403.319,221.295,344.341C274.139,290.532,264.218,203.253,301.462,137.673C344.107,62.582,462.598,20.655,453.915,-65.263C445.344,-150.064,328.215,-172.606,264.394,-229.099C210.806,-276.534,178.838,-355.764,108.849,-370.707C39.304,-385.555,-19.041,-314.604,-89.452,-304.646C-178.072,-292.113,-293.986,-373.168,-352.52,-305.46C-411.084,-237.717,-308.691,-134.521,-313.814,-45.12C-318.26,32.471,-408.304,101.157,-379.965,173.524C-351.915,245.153,-246.635,241.654,-184.016,286.335C-116.788,334.304,-81.754,432.944,0,444.644" fill="#222122"></path><path d="M950 925.665C1029.828 933.146 1108.676 992.8050000000001 1182.804 962.25 1257.689 931.383 1301.719 848.806 1324.809 771.17 1346.45 698.404 1318.896 623.62 1305.753 548.85 1293.0520000000001 476.595 1286.175 404.11699999999996 1249.155 340.78 1206.63 268.024 1158.274 189.284 1078.954 160.82299999999998 998.577 131.983 911.582 166.058 829.693 190.272 747.946 214.44400000000002 653.9259999999999 231.236 604.9259999999999 300.992 556.613 369.769 586.97 463.003 579.318 546.704 572.149 625.131 529.7149999999999 705.369 561.367 777.483 593.098 849.777 669.874 892.9680000000001 743.644 921.096 809.26 946.115 880.082 919.113 950 925.665" fill="#383538"></path></g><defs><mask id="SvgjsMask1090"><rect width="950" height="600" fill="#ffffff"></rect></mask></defs></svg>