<svg xmlns="http://www.w3.org/2000/svg" version="1.1" xmlns:xlink="http://www.w3.org/1999/xlink" xmlns:svgjs="http://svgjs.dev/svgjs" width="1920" height="1080" preserveAspectRatio="none" viewBox="0 0 1920 1080"><g mask="url(&quot;#SvgjsMask1593&quot;)" fill="none"><rect width="1920" height="1080" x="0" y="0" fill="url(&quot;#SvgjsRadialGradient1594&quot;)"></rect><path d="M1952 1080L0 1080 L0 583.65Q104.98 592.63, 96 697.62Q183.58 625.2, 256 712.79Q298.25 595.03, 416 637.28Q464.28 525.56, 576 573.84Q677.28 515.13, 736 616.41Q842.15 562.56, 896 668.71Q923.45 536.16, 1056 563.61Q1117.46 529.07, 1152 590.53Q1224.9 567.43, 1248 640.33Q1339.34 571.66, 1408 663Q1461.72 620.73, 1504 674.45Q1542.77 553.22, 1664 591.99Q1722.87 554.86, 1760 613.72Q1833.63 591.35, 1856 664.97Q1894.03 607, 1952 645.02z" fill="#182f5d"></path><path d="M1952 1080L0 1080 L0 850.45Q-28.85 725.6, 96 696.75Q197.15 701.9, 192 803.06Q266.77 781.83, 288 856.59Q322.46 795.05, 384 829.5Q405.63 691.13, 544 712.77Q606.43 615.2, 704 677.64Q791.61 605.25, 864 692.85Q985.01 653.87, 1024 774.88Q1092.3 747.17, 1120 815.47Q1222.6 758.07, 1280 860.67Q1292.7 713.37, 1440 726.06Q1462.83 652.88, 1536 675.71Q1627.83 607.54, 1696 699.36Q1817.68 661.05, 1856 782.73Q1875.71 706.44, 1952 726.16z" fill="#25467d"></path><path d="M2080 1080L0 1080 L0 979.6Q22.88 906.48, 96 929.35Q107.39 844.74, 192 856.13Q287.65 791.78, 352 887.43Q417.37 856.8, 448 922.17Q463.03 841.2, 544 856.24Q570.07 786.31, 640 812.37Q754.61 766.98, 800 881.58Q822.7 808.28, 896 830.97Q981.49 756.46, 1056 841.94Q1132.16 822.1, 1152 898.26Q1219.39 805.65, 1312 873.04Q1365.72 766.75, 1472 820.47Q1527.26 779.73, 1568 834.98Q1725.46 832.44, 1728 989.9Q1756.18 922.08, 1824 950.26Q1804.02 834.27, 1920 814.29Q2038.69 772.98, 2080 891.68z" fill="#356cb1"></path><path d="M2016 1080L0 1080 L0 1033.28Q84.77 1022.05, 96 1106.82Q186.53 1037.35, 256 1127.88Q294.86 1006.74, 416 1045.61Q455.67 989.28, 512 1028.95Q568.11 925.06, 672 981.17Q737.9 887.07, 832 952.96Q931.77 892.73, 992 992.5Q1073.64 978.14, 1088 1059.79Q1166.56 1042.35, 1184 1120.9Q1200.45 977.36, 1344 993.81Q1430.1 919.91, 1504 1006.01Q1566.57 908.58, 1664 971.15Q1740.95 952.1, 1760 1029.05Q1833.17 942.22, 1920 1015.39Q1947.45 946.84, 2016 974.29z" fill="white"></path></g><defs><mask id="SvgjsMask1593"><rect width="1920" height="1080" fill="#ffffff"></rect></mask><radialGradient cx="50%" cy="100%" r="1444.99" gradientUnits="userSpaceOnUse" id="SvgjsRadialGradient1594"><stop stop-color="rgba(73, 81, 124, 1)" offset="0"></stop><stop stop-color="rgba(14, 42, 71, 1)" offset="1"></stop></radialGradient></defs></svg>