<svg xmlns="http://www.w3.org/2000/svg" version="1.1" xmlns:xlink="http://www.w3.org/1999/xlink" xmlns:svgjs="http://svgjs.dev/svgjs" width="1920" height="1080" preserveAspectRatio="none" viewBox="0 0 1920 1080"><g mask="url(&quot;#SvgjsMask3465&quot;)" fill="none"><rect width="1920" height="1080" x="0" y="0" fill="url(&quot;#SvgjsRadialGradient3466&quot;)"></rect><path d="M1952 1080L0 1080 L0 631.32Q122.02 593.35, 160 715.37Q192.12 651.49, 256 683.6Q279.58 611.18, 352 634.76Q399.23 521.99, 512 569.22Q630.09 527.31, 672 645.39Q758.48 635.87, 768 722.34Q793.41 651.75, 864 677.16Q928.47 645.63, 960 710.09Q985.44 575.53, 1120 600.96Q1218.35 539.31, 1280 637.66Q1397.11 594.77, 1440 711.88Q1469.51 581.38, 1600 610.89Q1657.38 572.26, 1696 629.64Q1733.82 507.45, 1856 545.27Q1911.54 504.81, 1952 560.35z" fill="rgba(60, 37, 79, 1)"></path><path d="M2016 1080L0 1080 L0 734.94Q57.6 696.54, 96 754.14Q207.52 705.66, 256 817.18Q357.45 758.63, 416 860.08Q423.57 771.65, 512 779.23Q536.04 707.27, 608 731.31Q664.89 692.2, 704 749.09Q731.71 680.8, 800 708.5Q910 658.5, 960 768.49Q1047.99 760.48, 1056 848.46Q1084.38 780.84, 1152 809.21Q1183.4 744.61, 1248 776.01Q1309.34 677.35, 1408 738.69Q1427.74 662.43, 1504 682.18Q1594.29 612.47, 1664 702.76Q1774.32 717.08, 1760 827.4Q1740.1 711.5, 1856 691.59Q2004.01 679.61, 2016 827.62z" fill="rgba(126, 71, 126, 1)"></path><path d="M1984 1080L0 1080 L0 811.19Q81.74 796.93, 96 878.67Q185.27 807.94, 256 897.21Q347.6 892.81, 352 984.41Q414.92 887.33, 512 950.24Q579.19 857.43, 672 924.63Q782.82 875.45, 832 986.27Q837.81 832.08, 992 837.88Q1064.66 750.54, 1152 823.2Q1296.07 807.27, 1312 951.33Q1397.26 876.59, 1472 961.85Q1492.8 822.65, 1632 843.46Q1721.08 772.54, 1792 861.61Q1857.33 830.94, 1888 896.27Q1961.39 873.66, 1984 947.06z" fill="rgba(177, 137, 190, 1)"></path><path d="M1952 1080L0 1080 L0 1124.51Q84.44 1048.95, 160 1133.38Q188.84 1066.22, 256 1095.07Q301.42 980.49, 416 1025.91Q479.34 929.25, 576 992.58Q678.89 935.47, 736 1038.36Q802.52 944.88, 896 1011.4Q1008.05 963.45, 1056 1075.5Q1078.84 1002.34, 1152 1025.18Q1179.58 956.76, 1248 984.33Q1281.76 922.09, 1344 955.85Q1414.63 930.48, 1440 1001.1Q1520.57 985.67, 1536 1066.24Q1567.44 937.68, 1696 969.13Q1752.88 930.01, 1792 986.9Q1932.69 967.59, 1952 1108.28z" fill="rgba(197, 183, 198, 1)"></path></g><defs><mask id="SvgjsMask3465"><rect width="1920" height="1080" fill="#ffffff"></rect></mask><radialGradient cx="50%" cy="100%" r="1444.99" gradientUnits="userSpaceOnUse" id="SvgjsRadialGradient3466"><stop stop-color="rgba(56, 32, 75, 1)" offset="0.39"></stop><stop stop-color="rgba(18, 18, 18, 1)" offset="0.88"></stop></radialGradient></defs></svg>